<?xml version="1.0" standalone="no"?>
<!DOCTYPE svg PUBLIC "-//W3C//DTD SVG 20010904//EN"
 "http://www.w3.org/TR/2001/REC-SVG-20010904/DTD/svg10.dtd">
<svg version="1.0" xmlns="http://www.w3.org/2000/svg"
 width="180.000000pt" height="180.000000pt" viewBox="0 0 180.000000 180.000000"
 preserveAspectRatio="xMidYMid meet">

<g transform="translate(0.000000,180.000000) scale(0.100000,-0.100000)"
fill="currentColor" stroke="none">
<path d="M725 1725 c-328 -72 -581 -328 -650 -657 -19 -89 -19 -247 0 -336 60
-286 259 -520 529 -621 243 -91 523 -62 746 77 242 150 390 420 390 712 0 404
-275 742 -672 825 -84 18 -261 18 -343 0z m300 -321 c97 -25 165 -64 241 -139
74 -73 123 -157 143 -245 6 -25 11 -175 11 -343 l0 -299 -80 71 -80 71 -48
-37 c-179 -138 -444 -138 -624 0 l-46 36 -79 -69 -78 -69 -3 287 c-3 318 1
353 54 462 102 214 360 334 589 274z"/>
<path d="M823 1075 c-17 -7 -45 -28 -62 -45 -85 -90 -59 -246 51 -299 143 -69
291 33 276 190 -12 125 -149 205 -265 154z"/>
</g>
</svg>
